<mxfile host="Electron" agent="Mozilla/5.0 (Windows NT 10.0; Win64; x64) AppleWebKit/537.36 (KHTML, like Gecko) draw.io/27.0.9 Chrome/134.0.6998.205 Electron/35.4.0 Safari/537.36" version="27.0.9">
  <diagram name="Page-1" id="P6DhZqy2kRD_kRacuFlR">
    <mxGraphModel dx="1042" dy="626" grid="1" gridSize="10" guides="1" tooltips="1" connect="1" arrows="1" fold="1" page="1" pageScale="1" pageWidth="850" pageHeight="1100" math="0" shadow="0">
      <root>
        <mxCell id="0" />
        <mxCell id="1" parent="0" />
        <mxCell id="BMBTzEoPHNOzFxcBOX1F-1" value="" style="rounded=1;whiteSpace=wrap;html=1;dashed=1;dashPattern=8 8;fillColor=none;strokeColor=default;" parent="1" vertex="1">
          <mxGeometry x="90" y="190" width="120" height="440" as="geometry" />
        </mxCell>
        <mxCell id="BMBTzEoPHNOzFxcBOX1F-2" value="&lt;font style=&quot;font-size: 24px;&quot;&gt;Sources&lt;/font&gt;" style="rounded=0;whiteSpace=wrap;html=1;strokeColor=none;" parent="1" vertex="1">
          <mxGeometry x="100" y="170" width="100" height="30" as="geometry" />
        </mxCell>
        <mxCell id="BMBTzEoPHNOzFxcBOX1F-4" value="" style="rounded=1;whiteSpace=wrap;html=1;dashed=1;dashPattern=8 8;fillStyle=hatch;fillColor=#ffe6cc;strokeColor=#d79b00;" parent="1" vertex="1">
          <mxGeometry x="307.5" y="190" width="200" height="440" as="geometry" />
        </mxCell>
        <mxCell id="BMBTzEoPHNOzFxcBOX1F-14" value="&lt;font style=&quot;font-size: 24px;&quot;&gt;Bronze Layer&lt;/font&gt;" style="rounded=1;whiteSpace=wrap;html=1;fillColor=#ffe6cc;strokeColor=#d79b00;" parent="1" vertex="1">
          <mxGeometry x="328.75" y="170" width="157.5" height="30" as="geometry" />
        </mxCell>
        <mxCell id="BMBTzEoPHNOzFxcBOX1F-22" value="" style="group" parent="1" vertex="1" connectable="0">
          <mxGeometry x="340" y="250" width="135" height="130" as="geometry" />
        </mxCell>
        <mxCell id="71rNTjuoHDlQVjUPBWCz-12" style="edgeStyle=orthogonalEdgeStyle;rounded=0;orthogonalLoop=1;jettySize=auto;html=1;exitX=1;exitY=0.5;exitDx=0;exitDy=0;" parent="BMBTzEoPHNOzFxcBOX1F-22" source="BMBTzEoPHNOzFxcBOX1F-16" edge="1">
          <mxGeometry relative="1" as="geometry">
            <mxPoint x="280" y="14.571428571428669" as="targetPoint" />
          </mxGeometry>
        </mxCell>
        <mxCell id="BMBTzEoPHNOzFxcBOX1F-16" value="&lt;font style=&quot;font-size: 16px;&quot;&gt;crm_sales_details&lt;/font&gt;" style="rounded=1;whiteSpace=wrap;html=1;fillColor=#ffe6cc;strokeColor=#d79b00;" parent="BMBTzEoPHNOzFxcBOX1F-22" vertex="1">
          <mxGeometry width="135" height="30" as="geometry" />
        </mxCell>
        <mxCell id="BMBTzEoPHNOzFxcBOX1F-19" value="&lt;font style=&quot;font-size: 16px;&quot;&gt;crm_cust_info&lt;/font&gt;" style="rounded=1;whiteSpace=wrap;html=1;fillColor=#ffe6cc;strokeColor=#d79b00;" parent="BMBTzEoPHNOzFxcBOX1F-22" vertex="1">
          <mxGeometry x="2.5" y="50" width="132.5" height="30" as="geometry" />
        </mxCell>
        <mxCell id="BMBTzEoPHNOzFxcBOX1F-20" value="&lt;font style=&quot;font-size: 16px;&quot;&gt;crm_prd_info&lt;/font&gt;" style="rounded=1;whiteSpace=wrap;html=1;fillColor=#ffe6cc;strokeColor=#d79b00;" parent="BMBTzEoPHNOzFxcBOX1F-22" vertex="1">
          <mxGeometry y="100" width="135" height="30" as="geometry" />
        </mxCell>
        <mxCell id="BMBTzEoPHNOzFxcBOX1F-24" value="" style="group" parent="1" vertex="1" connectable="0">
          <mxGeometry x="345" y="450" width="135" height="130" as="geometry" />
        </mxCell>
        <mxCell id="71rNTjuoHDlQVjUPBWCz-15" style="edgeStyle=orthogonalEdgeStyle;rounded=0;orthogonalLoop=1;jettySize=auto;html=1;exitX=1;exitY=0.5;exitDx=0;exitDy=0;" parent="BMBTzEoPHNOzFxcBOX1F-24" source="BMBTzEoPHNOzFxcBOX1F-25" edge="1">
          <mxGeometry relative="1" as="geometry">
            <mxPoint x="275" y="14.571428571428669" as="targetPoint" />
          </mxGeometry>
        </mxCell>
        <mxCell id="BMBTzEoPHNOzFxcBOX1F-25" value="&lt;span style=&quot;font-size: 16px;&quot;&gt;erp_cust_az12&lt;/span&gt;" style="rounded=1;whiteSpace=wrap;html=1;fillColor=#ffe6cc;strokeColor=#d79b00;" parent="BMBTzEoPHNOzFxcBOX1F-24" vertex="1">
          <mxGeometry width="135" height="30" as="geometry" />
        </mxCell>
        <mxCell id="71rNTjuoHDlQVjUPBWCz-16" style="edgeStyle=orthogonalEdgeStyle;rounded=0;orthogonalLoop=1;jettySize=auto;html=1;exitX=1;exitY=0.5;exitDx=0;exitDy=0;" parent="BMBTzEoPHNOzFxcBOX1F-24" source="BMBTzEoPHNOzFxcBOX1F-26" edge="1">
          <mxGeometry relative="1" as="geometry">
            <mxPoint x="285" y="64.57142857142867" as="targetPoint" />
          </mxGeometry>
        </mxCell>
        <mxCell id="BMBTzEoPHNOzFxcBOX1F-26" value="&lt;span style=&quot;font-size: 16px;&quot;&gt;erp_loc_a101&lt;/span&gt;" style="rounded=1;whiteSpace=wrap;html=1;fillColor=#ffe6cc;strokeColor=#d79b00;" parent="BMBTzEoPHNOzFxcBOX1F-24" vertex="1">
          <mxGeometry x="2.5" y="50" width="132.5" height="30" as="geometry" />
        </mxCell>
        <mxCell id="BMBTzEoPHNOzFxcBOX1F-27" value="&lt;span style=&quot;font-size: 16px;&quot;&gt;erp_px_cat_g1v2&lt;/span&gt;" style="rounded=1;whiteSpace=wrap;html=1;fillColor=#ffe6cc;strokeColor=#d79b00;" parent="BMBTzEoPHNOzFxcBOX1F-24" vertex="1">
          <mxGeometry y="100" width="135" height="30" as="geometry" />
        </mxCell>
        <mxCell id="BMBTzEoPHNOzFxcBOX1F-3" value="" style="image;aspect=fixed;html=1;points=[];align=center;fontSize=12;image=img/lib/azure2/general/Folder_Blank.svg;container=0;" parent="1" vertex="1">
          <mxGeometry x="110" y="280" width="69" height="56.00000000000001" as="geometry" />
        </mxCell>
        <mxCell id="BMBTzEoPHNOzFxcBOX1F-29" style="edgeStyle=orthogonalEdgeStyle;rounded=0;orthogonalLoop=1;jettySize=auto;html=1;" parent="1" source="BMBTzEoPHNOzFxcBOX1F-7" target="BMBTzEoPHNOzFxcBOX1F-19" edge="1">
          <mxGeometry relative="1" as="geometry" />
        </mxCell>
        <mxCell id="BMBTzEoPHNOzFxcBOX1F-30" style="edgeStyle=orthogonalEdgeStyle;rounded=0;orthogonalLoop=1;jettySize=auto;html=1;entryX=0;entryY=0.5;entryDx=0;entryDy=0;" parent="1" source="BMBTzEoPHNOzFxcBOX1F-7" target="BMBTzEoPHNOzFxcBOX1F-16" edge="1">
          <mxGeometry relative="1" as="geometry" />
        </mxCell>
        <mxCell id="BMBTzEoPHNOzFxcBOX1F-31" style="edgeStyle=orthogonalEdgeStyle;rounded=0;orthogonalLoop=1;jettySize=auto;html=1;entryX=0;entryY=0.5;entryDx=0;entryDy=0;" parent="1" source="BMBTzEoPHNOzFxcBOX1F-7" target="BMBTzEoPHNOzFxcBOX1F-20" edge="1">
          <mxGeometry relative="1" as="geometry" />
        </mxCell>
        <mxCell id="BMBTzEoPHNOzFxcBOX1F-7" value="" style="html=1;verticalLabelPosition=bottom;align=center;labelBackgroundColor=#ffffff;verticalAlign=top;strokeWidth=2;strokeColor=#0080F0;shadow=0;dashed=0;shape=mxgraph.ios7.icons.folder;container=0;" parent="1" vertex="1">
          <mxGeometry x="144" y="310" width="40" height="29.5" as="geometry" />
        </mxCell>
        <mxCell id="BMBTzEoPHNOzFxcBOX1F-10" value="CRM&amp;nbsp;" style="rounded=0;whiteSpace=wrap;html=1;container=0;" parent="1" vertex="1">
          <mxGeometry x="110" y="350" width="80" height="20" as="geometry" />
        </mxCell>
        <mxCell id="BMBTzEoPHNOzFxcBOX1F-8" value="" style="image;aspect=fixed;html=1;points=[];align=center;fontSize=12;image=img/lib/azure2/general/Folder_Blank.svg;" parent="1" vertex="1">
          <mxGeometry x="110" y="470" width="69" height="56.00000000000001" as="geometry" />
        </mxCell>
        <mxCell id="BMBTzEoPHNOzFxcBOX1F-32" style="edgeStyle=orthogonalEdgeStyle;rounded=0;orthogonalLoop=1;jettySize=auto;html=1;entryX=0;entryY=0.5;entryDx=0;entryDy=0;" parent="1" source="BMBTzEoPHNOzFxcBOX1F-9" target="BMBTzEoPHNOzFxcBOX1F-26" edge="1">
          <mxGeometry relative="1" as="geometry" />
        </mxCell>
        <mxCell id="BMBTzEoPHNOzFxcBOX1F-33" style="edgeStyle=orthogonalEdgeStyle;rounded=0;orthogonalLoop=1;jettySize=auto;html=1;entryX=0;entryY=0.5;entryDx=0;entryDy=0;" parent="1" source="BMBTzEoPHNOzFxcBOX1F-9" target="BMBTzEoPHNOzFxcBOX1F-25" edge="1">
          <mxGeometry relative="1" as="geometry" />
        </mxCell>
        <mxCell id="BMBTzEoPHNOzFxcBOX1F-34" style="edgeStyle=orthogonalEdgeStyle;rounded=0;orthogonalLoop=1;jettySize=auto;html=1;entryX=0;entryY=0.5;entryDx=0;entryDy=0;" parent="1" source="BMBTzEoPHNOzFxcBOX1F-9" target="BMBTzEoPHNOzFxcBOX1F-27" edge="1">
          <mxGeometry relative="1" as="geometry" />
        </mxCell>
        <mxCell id="BMBTzEoPHNOzFxcBOX1F-9" value="" style="html=1;verticalLabelPosition=bottom;align=center;labelBackgroundColor=#ffffff;verticalAlign=top;strokeWidth=2;strokeColor=#0080F0;shadow=0;dashed=0;shape=mxgraph.ios7.icons.folder;" parent="1" vertex="1">
          <mxGeometry x="144" y="500" width="40" height="29.5" as="geometry" />
        </mxCell>
        <mxCell id="BMBTzEoPHNOzFxcBOX1F-13" value="ERP" style="rounded=0;whiteSpace=wrap;html=1;" parent="1" vertex="1">
          <mxGeometry x="110" y="540" width="80" height="20" as="geometry" />
        </mxCell>
        <mxCell id="71rNTjuoHDlQVjUPBWCz-1" value="" style="rounded=1;whiteSpace=wrap;html=1;dashed=1;dashPattern=8 8;fillStyle=hatch;fillColor=#f5f5f5;strokeColor=#666666;fontColor=#333333;movable=0;resizable=0;rotatable=0;deletable=0;editable=0;locked=1;connectable=0;" parent="1" vertex="1">
          <mxGeometry x="590" y="190" width="200" height="440" as="geometry" />
        </mxCell>
        <mxCell id="71rNTjuoHDlQVjUPBWCz-2" value="&lt;span style=&quot;font-size: 24px;&quot;&gt;Silver Layer&lt;/span&gt;" style="rounded=1;whiteSpace=wrap;html=1;fillColor=#f5f5f5;strokeColor=#666666;fontColor=#333333;" parent="1" vertex="1">
          <mxGeometry x="620" y="170" width="140" height="30" as="geometry" />
        </mxCell>
        <mxCell id="71rNTjuoHDlQVjUPBWCz-3" value="" style="group;fillColor=none;fontColor=#333333;strokeColor=none;" parent="1" vertex="1" connectable="0">
          <mxGeometry x="622.5" y="250" width="135" height="130" as="geometry" />
        </mxCell>
        <mxCell id="71rNTjuoHDlQVjUPBWCz-4" value="&lt;font style=&quot;font-size: 16px;&quot;&gt;crm_sales_details&lt;/font&gt;" style="rounded=1;whiteSpace=wrap;html=1;fillColor=#f5f5f5;strokeColor=#666666;fontColor=#333333;" parent="71rNTjuoHDlQVjUPBWCz-3" vertex="1">
          <mxGeometry width="135" height="30" as="geometry" />
        </mxCell>
        <mxCell id="71rNTjuoHDlQVjUPBWCz-5" value="&lt;font style=&quot;font-size: 16px;&quot;&gt;crm_cust_info&lt;/font&gt;" style="rounded=1;whiteSpace=wrap;html=1;fillColor=#f5f5f5;strokeColor=#666666;fontColor=#333333;" parent="71rNTjuoHDlQVjUPBWCz-3" vertex="1">
          <mxGeometry x="2.5" y="50" width="132.5" height="30" as="geometry" />
        </mxCell>
        <mxCell id="71rNTjuoHDlQVjUPBWCz-6" value="&lt;font style=&quot;font-size: 16px;&quot;&gt;crm_prd_info&lt;/font&gt;" style="rounded=1;whiteSpace=wrap;html=1;fillColor=#f5f5f5;strokeColor=#666666;fontColor=#333333;" parent="71rNTjuoHDlQVjUPBWCz-3" vertex="1">
          <mxGeometry y="100" width="135" height="30" as="geometry" />
        </mxCell>
        <mxCell id="71rNTjuoHDlQVjUPBWCz-7" value="" style="group;fillColor=none;fontColor=#333333;strokeColor=none;" parent="1" vertex="1" connectable="0">
          <mxGeometry x="627.5" y="450" width="135" height="130" as="geometry" />
        </mxCell>
        <mxCell id="71rNTjuoHDlQVjUPBWCz-8" value="&lt;span style=&quot;font-size: 16px;&quot;&gt;erp_cust_az12&lt;/span&gt;" style="rounded=1;whiteSpace=wrap;html=1;fillColor=#f5f5f5;strokeColor=#666666;fontColor=#333333;" parent="71rNTjuoHDlQVjUPBWCz-7" vertex="1">
          <mxGeometry width="135" height="30" as="geometry" />
        </mxCell>
        <mxCell id="71rNTjuoHDlQVjUPBWCz-9" value="&lt;span style=&quot;font-size: 16px;&quot;&gt;erp_loc_a101&lt;/span&gt;" style="rounded=1;whiteSpace=wrap;html=1;fillColor=#f5f5f5;strokeColor=#666666;fontColor=#333333;" parent="71rNTjuoHDlQVjUPBWCz-7" vertex="1">
          <mxGeometry x="2.5" y="50" width="132.5" height="30" as="geometry" />
        </mxCell>
        <mxCell id="71rNTjuoHDlQVjUPBWCz-10" value="&lt;span style=&quot;font-size: 16px;&quot;&gt;erp_px_cat_g1v2&lt;/span&gt;" style="rounded=1;whiteSpace=wrap;html=1;fillColor=#f5f5f5;strokeColor=#666666;fontColor=#333333;" parent="71rNTjuoHDlQVjUPBWCz-7" vertex="1">
          <mxGeometry y="100" width="135" height="30" as="geometry" />
        </mxCell>
        <mxCell id="71rNTjuoHDlQVjUPBWCz-11" style="edgeStyle=orthogonalEdgeStyle;rounded=0;orthogonalLoop=1;jettySize=auto;html=1;exitX=0.5;exitY=1;exitDx=0;exitDy=0;fillColor=#f5f5f5;strokeColor=#666666;" parent="1" source="71rNTjuoHDlQVjUPBWCz-2" target="71rNTjuoHDlQVjUPBWCz-2" edge="1">
          <mxGeometry relative="1" as="geometry" />
        </mxCell>
        <mxCell id="71rNTjuoHDlQVjUPBWCz-13" style="edgeStyle=orthogonalEdgeStyle;rounded=0;orthogonalLoop=1;jettySize=auto;html=1;exitX=1;exitY=0.5;exitDx=0;exitDy=0;entryX=0;entryY=0.5;entryDx=0;entryDy=0;" parent="1" source="BMBTzEoPHNOzFxcBOX1F-19" target="71rNTjuoHDlQVjUPBWCz-5" edge="1">
          <mxGeometry relative="1" as="geometry" />
        </mxCell>
        <mxCell id="71rNTjuoHDlQVjUPBWCz-14" style="edgeStyle=orthogonalEdgeStyle;rounded=0;orthogonalLoop=1;jettySize=auto;html=1;exitX=1;exitY=0.5;exitDx=0;exitDy=0;entryX=0;entryY=0.5;entryDx=0;entryDy=0;" parent="1" source="BMBTzEoPHNOzFxcBOX1F-20" target="71rNTjuoHDlQVjUPBWCz-6" edge="1">
          <mxGeometry relative="1" as="geometry" />
        </mxCell>
        <mxCell id="mrj07jdcsya_X6PDZBdi-1" value="" style="rounded=1;whiteSpace=wrap;html=1;dashed=1;dashPattern=8 8;fillStyle=hatch;fillColor=#fff2cc;strokeColor=default;movable=1;resizable=1;rotatable=1;deletable=1;editable=1;locked=0;connectable=1;" vertex="1" parent="1">
          <mxGeometry x="860" y="190" width="200" height="440" as="geometry" />
        </mxCell>
        <mxCell id="71rNTjuoHDlQVjUPBWCz-17" style="edgeStyle=orthogonalEdgeStyle;rounded=0;orthogonalLoop=1;jettySize=auto;html=1;exitX=1;exitY=0.5;exitDx=0;exitDy=0;entryX=0;entryY=0.5;entryDx=0;entryDy=0;" parent="1" source="BMBTzEoPHNOzFxcBOX1F-27" target="71rNTjuoHDlQVjUPBWCz-10" edge="1">
          <mxGeometry relative="1" as="geometry" />
        </mxCell>
        <mxCell id="mrj07jdcsya_X6PDZBdi-2" value="&lt;span style=&quot;font-size: 24px;&quot;&gt;Gold Layer&lt;/span&gt;" style="rounded=1;whiteSpace=wrap;html=1;fillColor=#fff2cc;strokeColor=#d6b656;" vertex="1" parent="1">
          <mxGeometry x="890" y="170" width="140" height="30" as="geometry" />
        </mxCell>
        <mxCell id="mrj07jdcsya_X6PDZBdi-3" value="" style="group;fillColor=none;strokeColor=none;" vertex="1" connectable="0" parent="1">
          <mxGeometry x="890" y="290" width="135" height="130" as="geometry" />
        </mxCell>
        <mxCell id="mrj07jdcsya_X6PDZBdi-5" value="&lt;span style=&quot;font-size: 16px;&quot;&gt;fact_sales&lt;/span&gt;" style="rounded=1;whiteSpace=wrap;html=1;fillColor=#fff2cc;strokeColor=#d6b656;" vertex="1" parent="mrj07jdcsya_X6PDZBdi-3">
          <mxGeometry y="90" width="132.5" height="30" as="geometry" />
        </mxCell>
        <mxCell id="mrj07jdcsya_X6PDZBdi-11" style="edgeStyle=orthogonalEdgeStyle;rounded=0;orthogonalLoop=1;jettySize=auto;html=1;exitX=0.5;exitY=1;exitDx=0;exitDy=0;fillColor=#fff2cc;strokeColor=#d6b656;" edge="1" parent="1" source="mrj07jdcsya_X6PDZBdi-2" target="mrj07jdcsya_X6PDZBdi-2">
          <mxGeometry relative="1" as="geometry" />
        </mxCell>
        <mxCell id="mrj07jdcsya_X6PDZBdi-6" value="&lt;span style=&quot;font-size: 16px;&quot;&gt;dim_products&lt;/span&gt;" style="rounded=1;whiteSpace=wrap;html=1;fillColor=#fff2cc;strokeColor=#d6b656;" vertex="1" parent="1">
          <mxGeometry x="892.5" y="483" width="135" height="30" as="geometry" />
        </mxCell>
        <mxCell id="mrj07jdcsya_X6PDZBdi-4" value="&lt;span style=&quot;font-size: 16px;&quot;&gt;dim_customers&lt;/span&gt;" style="rounded=1;whiteSpace=wrap;html=1;fillColor=#fff2cc;strokeColor=#d6b656;" vertex="1" parent="1">
          <mxGeometry x="890" y="270" width="135" height="30" as="geometry" />
        </mxCell>
        <mxCell id="mrj07jdcsya_X6PDZBdi-13" value="" style="endArrow=classic;html=1;rounded=0;exitX=1;exitY=0.5;exitDx=0;exitDy=0;jumpStyle=gap;" edge="1" parent="1" source="71rNTjuoHDlQVjUPBWCz-8">
          <mxGeometry width="50" height="50" relative="1" as="geometry">
            <mxPoint x="720" y="490" as="sourcePoint" />
            <mxPoint x="890" y="290" as="targetPoint" />
          </mxGeometry>
        </mxCell>
        <mxCell id="mrj07jdcsya_X6PDZBdi-14" value="" style="endArrow=classic;html=1;rounded=0;exitX=1;exitY=0.75;exitDx=0;exitDy=0;entryX=0;entryY=0.5;entryDx=0;entryDy=0;jumpStyle=gap;" edge="1" parent="1" source="71rNTjuoHDlQVjUPBWCz-5" target="mrj07jdcsya_X6PDZBdi-4">
          <mxGeometry width="50" height="50" relative="1" as="geometry">
            <mxPoint x="780" y="330" as="sourcePoint" />
            <mxPoint x="830" y="280" as="targetPoint" />
          </mxGeometry>
        </mxCell>
        <mxCell id="mrj07jdcsya_X6PDZBdi-16" value="" style="endArrow=classic;html=1;rounded=0;exitX=1;exitY=0.5;exitDx=0;exitDy=0;entryX=0;entryY=0.5;entryDx=0;entryDy=0;jumpStyle=gap;" edge="1" parent="1" source="71rNTjuoHDlQVjUPBWCz-4" target="mrj07jdcsya_X6PDZBdi-5">
          <mxGeometry width="50" height="50" relative="1" as="geometry">
            <mxPoint x="720" y="490" as="sourcePoint" />
            <mxPoint x="770" y="440" as="targetPoint" />
          </mxGeometry>
        </mxCell>
        <mxCell id="mrj07jdcsya_X6PDZBdi-17" value="" style="endArrow=classic;html=1;rounded=0;exitX=1;exitY=0.5;exitDx=0;exitDy=0;entryX=0;entryY=0.5;entryDx=0;entryDy=0;jumpStyle=gap;" edge="1" parent="1" source="71rNTjuoHDlQVjUPBWCz-10" target="mrj07jdcsya_X6PDZBdi-6">
          <mxGeometry width="50" height="50" relative="1" as="geometry">
            <mxPoint x="720" y="490" as="sourcePoint" />
            <mxPoint x="770" y="440" as="targetPoint" />
          </mxGeometry>
        </mxCell>
        <mxCell id="mrj07jdcsya_X6PDZBdi-18" value="" style="endArrow=classic;html=1;rounded=0;exitX=1;exitY=0.5;exitDx=0;exitDy=0;entryX=0;entryY=0.75;entryDx=0;entryDy=0;jumpStyle=gap;" edge="1" parent="1" source="71rNTjuoHDlQVjUPBWCz-9" target="mrj07jdcsya_X6PDZBdi-4">
          <mxGeometry width="50" height="50" relative="1" as="geometry">
            <mxPoint x="740" y="510" as="sourcePoint" />
            <mxPoint x="790" y="460" as="targetPoint" />
          </mxGeometry>
        </mxCell>
        <mxCell id="mrj07jdcsya_X6PDZBdi-19" value="&lt;b&gt;Data Flow Diagram&lt;/b&gt;" style="text;strokeColor=none;align=center;fillColor=none;html=1;verticalAlign=middle;whiteSpace=wrap;rounded=0;fontSize=20;" vertex="1" parent="1">
          <mxGeometry x="50" y="50" width="230" height="30" as="geometry" />
        </mxCell>
      </root>
    </mxGraphModel>
  </diagram>
</mxfile>
